<svg width="35" height="35" viewBox="0 0 35 35" fill="none" xmlns="http://www.w3.org/2000/svg">
<path d="M32.8125 19.6875H19.6875V32.8125C19.6875 34.0206 18.7081 35 17.5 35C16.2919 35 15.3125 34.0206 15.3125 32.8125V19.6875H2.1875C0.979385 19.6875 0 18.7081 0 17.5C0 16.2919 0.979385 15.3125 2.1875 15.3125H15.3125V2.1875C15.3125 0.979385 16.2919 0 17.5 0C18.7081 0 19.6875 0.979385 19.6875 2.1875V15.3125H32.8125C34.0206 15.3125 35 16.2919 35 17.5C35 18.7081 34.0206 19.6875 32.8125 19.6875Z" fill="#372E24"/>
</svg>
