<svg width="44" height="25" viewBox="0 0 44 25" fill="none" xmlns="http://www.w3.org/2000/svg">
<path d="M40.1669 24.75L3.83194 24.75C3.18918 24.7473 2.56165 24.5541 2.0287 24.1947C1.49576 23.8354 1.08133 23.3261 0.837819 22.7313C0.594311 22.1364 0.532659 21.4827 0.660661 20.8528C0.788663 20.2229 1.10057 19.6451 1.55694 19.1925L19.6919 1.0575C19.9941 0.752881 20.3535 0.511101 20.7496 0.346102C21.1456 0.181104 21.5704 0.0961574 21.9994 0.0961574C22.4285 0.0961574 22.8533 0.181104 23.2493 0.346103C23.6454 0.511101 24.0048 0.752881 24.3069 1.0575L42.4419 19.1925C42.8983 19.6451 43.2102 20.2229 43.3382 20.8528C43.4662 21.4827 43.4046 22.1364 43.1611 22.7313C42.9176 23.3261 42.5031 23.8354 41.9702 24.1947C41.4372 24.5541 40.8097 24.7473 40.1669 24.75V24.75Z" fill="#372E24"/>
</svg>
