<svg width="44" height="25" viewBox="0 0 44 25" fill="none" xmlns="http://www.w3.org/2000/svg">
<path d="M3.83305 0.25L40.1681 0.25C40.8108 0.252695 41.4383 0.445923 41.9713 0.805252C42.5042 1.16458 42.9187 1.67388 43.1622 2.26873C43.4057 2.86359 43.4673 3.51729 43.3393 4.14718C43.2113 4.77707 42.8994 5.35487 42.4431 5.8075L24.3081 23.9425C24.0059 24.2471 23.6465 24.4889 23.2504 24.6539C22.8544 24.8189 22.4296 24.9038 22.0006 24.9038C21.5715 24.9038 21.1467 24.8189 20.7507 24.6539C20.3546 24.4889 19.9952 24.2471 19.6931 23.9425L1.55805 5.8075C1.10168 5.35487 0.789778 4.77707 0.661777 4.14718C0.533775 3.51729 0.595425 2.86359 0.838933 2.26873C1.08244 1.67388 1.49687 1.16458 2.02982 0.805252C2.56276 0.445923 3.19029 0.252695 3.83305 0.25Z" fill="#372E24"/>
</svg>
