<svg width="20" height="20" viewBox="0 0 20 20" fill="none" xmlns="http://www.w3.org/2000/svg">
<g clip-path="url(#clip0_317_4222)">
<path d="M14.1667 0H16.6667C17.5507 0 18.3986 0.35119 19.0237 0.976311C19.6488 1.60143 20 2.44928 20 3.33333V5.83333C20 6.71739 19.6488 7.56524 19.0237 8.19036C18.3986 8.81548 17.5507 9.16667 16.6667 9.16667H14.1667C13.2826 9.16667 12.4348 8.81548 11.8096 8.19036C11.1845 7.56524 10.8333 6.71739 10.8333 5.83333V3.33333C10.8333 2.44928 11.1845 1.60143 11.8096 0.976311C12.4348 0.35119 13.2826 0 14.1667 0V0ZM12.5 5.83333C12.5 6.27536 12.6756 6.69928 12.9882 7.01184C13.3007 7.32441 13.7246 7.5 14.1667 7.5H16.6667C17.1087 7.5 17.5326 7.32441 17.8452 7.01184C18.1577 6.69928 18.3333 6.27536 18.3333 5.83333V3.33333C18.3333 2.89131 18.1577 2.46738 17.8452 2.15482C17.5326 1.84226 17.1087 1.66667 16.6667 1.66667H14.1667C13.7246 1.66667 13.3007 1.84226 12.9882 2.15482C12.6756 2.46738 12.5 2.89131 12.5 3.33333V5.83333Z" fill="black"/>
<path d="M3.33073 0H5.83073C6.71478 0 7.56263 0.35119 8.18775 0.976311C8.81287 1.60143 9.16406 2.44928 9.16406 3.33333V5.83333C9.16406 6.71739 8.81287 7.56524 8.18775 8.19036C7.56263 8.81548 6.71478 9.16667 5.83073 9.16667H3.33073C2.44667 9.16667 1.59883 8.81548 0.973707 8.19036C0.348585 7.56524 -0.00260448 6.71739 -0.00260448 5.83333V3.33333C-0.00260448 2.44928 0.348585 1.60143 0.973707 0.976311C1.59883 0.35119 2.44667 0 3.33073 0V0ZM1.66406 5.83333C1.66406 6.27536 1.83966 6.69928 2.15222 7.01184C2.46478 7.32441 2.8887 7.5 3.33073 7.5H5.83073C6.27276 7.5 6.69668 7.32441 7.00924 7.01184C7.3218 6.69928 7.4974 6.27536 7.4974 5.83333V3.33333C7.4974 2.89131 7.3218 2.46738 7.00924 2.15482C6.69668 1.84226 6.27276 1.66667 5.83073 1.66667H3.33073C2.8887 1.66667 2.46478 1.84226 2.15222 2.15482C1.83966 2.46738 1.66406 2.89131 1.66406 3.33333V5.83333Z" fill="black"/>
<path d="M14.1667 10.8333H16.6667C17.5507 10.8333 18.3986 11.1844 19.0237 11.8096C19.6488 12.4347 20 13.2825 20 14.1666V16.6666C20 17.5506 19.6488 18.3985 19.0237 19.0236C18.3986 19.6487 17.5507 19.9999 16.6667 19.9999H14.1667C13.2826 19.9999 12.4348 19.6487 11.8096 19.0236C11.1845 18.3985 10.8333 17.5506 10.8333 16.6666V14.1666C10.8333 13.2825 11.1845 12.4347 11.8096 11.8096C12.4348 11.1844 13.2826 10.8333 14.1667 10.8333ZM12.5 16.6666C12.5 17.1086 12.6756 17.5325 12.9882 17.8451C13.3007 18.1577 13.7246 18.3333 14.1667 18.3333H16.6667C17.1087 18.3333 17.5326 18.1577 17.8452 17.8451C18.1577 17.5325 18.3333 17.1086 18.3333 16.6666V14.1666C18.3333 13.7246 18.1577 13.3006 17.8452 12.9881C17.5326 12.6755 17.1087 12.4999 16.6667 12.4999H14.1667C13.7246 12.4999 13.3007 12.6755 12.9882 12.9881C12.6756 13.3006 12.5 13.7246 12.5 14.1666V16.6666Z" fill="black"/>
<path d="M3.33073 10.8333H5.83073C6.71478 10.8333 7.56263 11.1844 8.18775 11.8096C8.81287 12.4347 9.16406 13.2825 9.16406 14.1666V16.6666C9.16406 17.5506 8.81287 18.3985 8.18775 19.0236C7.56263 19.6487 6.71478 19.9999 5.83073 19.9999H3.33073C2.44667 19.9999 1.59883 19.6487 0.973707 19.0236C0.348585 18.3985 -0.00260448 17.5506 -0.00260448 16.6666V14.1666C-0.00260448 13.2825 0.348585 12.4347 0.973707 11.8096C1.59883 11.1844 2.44667 10.8333 3.33073 10.8333ZM1.66406 16.6666C1.66406 17.1086 1.83966 17.5325 2.15222 17.8451C2.46478 18.1577 2.8887 18.3333 3.33073 18.3333H5.83073C6.27276 18.3333 6.69668 18.1577 7.00924 17.8451C7.3218 17.5325 7.4974 17.1086 7.4974 16.6666V14.1666C7.4974 13.7246 7.3218 13.3006 7.00924 12.9881C6.69668 12.6755 6.27276 12.4999 5.83073 12.4999H3.33073C2.8887 12.4999 2.46478 12.6755 2.15222 12.9881C1.83966 13.3006 1.66406 13.7246 1.66406 14.1666V16.6666Z" fill="black"/>
</g>
<defs>
<clipPath id="clip0_317_4222">
<rect width="20" height="20" fill="white" transform="matrix(-1 0 0 1 20 0)"/>
</clipPath>
</defs>
</svg>
