<svg width="73" height="73" viewBox="0 0 73 73" fill="none" xmlns="http://www.w3.org/2000/svg">
<g clip-path="url(#clip0_58_5631)">
<path d="M73.0034 34.2096C72.5635 27.0922 70.0504 20.2591 65.774 14.5526C61.4975 8.8462 55.6446 4.51595 48.9369 2.0957C42.2292 -0.324549 34.9598 -0.72898 28.025 0.932263C21.0902 2.59351 14.7931 6.2478 9.90999 11.4446C5.02693 16.6415 1.77137 23.1537 0.544673 30.1784C-0.682027 37.2031 0.173756 44.4332 3.00652 50.9775C5.83928 57.5217 10.5252 63.0939 16.4866 67.0072C22.4479 70.9204 29.4241 73.0036 36.5551 73H57.7951C61.8274 72.996 65.6933 71.3924 68.5446 68.5411C71.3958 65.6899 72.9994 61.8239 73.0034 57.7917V34.2096ZM66.9201 57.7917C66.9201 60.2118 65.9587 62.5328 64.2475 64.244C62.5362 65.9553 60.2152 66.9167 57.7951 66.9167H36.5551C32.2631 66.9147 28.0197 66.0082 24.1016 64.2561C20.1835 62.5041 16.6787 59.9459 13.8156 56.7484C10.9388 53.5524 8.77843 49.7783 7.47953 45.6791C6.18062 41.5799 5.77317 37.2504 6.28448 32.9808C7.09184 26.2464 10.1175 19.9722 14.8846 15.1473C19.6517 10.3224 25.8889 7.22126 32.6131 6.33275C33.9248 6.16836 35.2454 6.08506 36.5673 6.08334C43.6558 6.064 50.5249 8.54071 55.9701 13.0792C59.1502 15.7222 61.7606 18.9835 63.6428 22.6654C65.525 26.3472 66.64 30.373 66.9201 34.4986V57.7917Z" fill="#5F904E"/>
<path d="M24.3307 27.3753H36.4974C37.3041 27.3753 38.0778 27.0549 38.6482 26.4844C39.2186 25.914 39.5391 25.1404 39.5391 24.3337C39.5391 23.527 39.2186 22.7533 38.6482 22.1829C38.0778 21.6125 37.3041 21.292 36.4974 21.292H24.3307C23.524 21.292 22.7504 21.6125 22.1799 22.1829C21.6095 22.7533 21.2891 23.527 21.2891 24.3337C21.2891 25.1404 21.6095 25.914 22.1799 26.4844C22.7504 27.0549 23.524 27.3753 24.3307 27.3753Z" fill="#5F904E"/>
<path d="M48.6641 33.458H24.3307C23.524 33.458 22.7504 33.7785 22.1799 34.3489C21.6095 34.9193 21.2891 35.693 21.2891 36.4997C21.2891 37.3064 21.6095 38.08 22.1799 38.6505C22.7504 39.2209 23.524 39.5413 24.3307 39.5413H48.6641C49.4708 39.5413 50.2444 39.2209 50.8148 38.6505C51.3853 38.08 51.7057 37.3064 51.7057 36.4997C51.7057 35.693 51.3853 34.9193 50.8148 34.3489C50.2444 33.7785 49.4708 33.458 48.6641 33.458Z" fill="#5F904E"/>
<path d="M48.6641 45.625H24.3307C23.524 45.625 22.7504 45.9455 22.1799 46.5159C21.6095 47.0863 21.2891 47.86 21.2891 48.6667C21.2891 49.4734 21.6095 50.247 22.1799 50.8175C22.7504 51.3879 23.524 51.7083 24.3307 51.7083H48.6641C49.4708 51.7083 50.2444 51.3879 50.8148 50.8175C51.3853 50.247 51.7057 49.4734 51.7057 48.6667C51.7057 47.86 51.3853 47.0863 50.8148 46.5159C50.2444 45.9455 49.4708 45.625 48.6641 45.625Z" fill="#5F904E"/>
</g>
<defs>
<clipPath id="clip0_58_5631">
<rect width="73" height="73" fill="white"/>
</clipPath>
</defs>
</svg>
