<svg width="27" height="26" viewBox="0 0 27 26" fill="none" xmlns="http://www.w3.org/2000/svg">
<g clip-path="url(#clip0_158_1419)">
<path d="M25.1172 19.9572C25.9362 21.0773 26.9994 22.3719 26.9994 23.2917C26.9994 24.01 26.703 24.6988 26.1756 25.2067C25.6482 25.7147 24.9328 26 24.1869 26C23.4409 26 22.7256 25.7147 22.1981 25.2067C21.6707 24.6988 21.3744 24.01 21.3744 23.2917C21.3744 22.4521 22.4555 21.1163 23.2779 19.9669C23.3809 19.8244 23.518 19.7079 23.6776 19.627C23.8372 19.5462 24.0146 19.5036 24.1949 19.5026C24.3752 19.5017 24.5531 19.5425 24.7137 19.6216C24.8742 19.7007 25.0126 19.8158 25.1172 19.9572ZM24.1306 15.0193L14.3746 24.414C13.3188 25.4282 11.8885 25.9978 10.3972 25.9978C8.9059 25.9978 7.4755 25.4282 6.41974 24.414L1.64749 19.8174C0.592617 18.8016 0 17.4239 0 15.9873C0 14.5507 0.592617 13.173 1.64749 12.1572L8.07011 5.97133L4.85711 2.84049C4.65306 2.63512 4.541 2.36075 4.54509 2.07654C4.54919 1.79233 4.66911 1.52106 4.879 1.32121C5.08889 1.12137 5.37194 1.00897 5.6671 1.00824C5.96227 1.00751 6.24591 1.11852 6.45686 1.31733L9.66086 4.44166L11.4024 2.76249L10.454 1.84924C10.2491 1.64492 10.1357 1.37127 10.1382 1.08723C10.1408 0.803179 10.2591 0.531466 10.4677 0.330607C10.6763 0.129748 10.9584 0.0158149 11.2534 0.0133466C11.5484 0.0108783 11.8326 0.120072 12.0447 0.31741L26.6697 14.4007C26.7772 14.5007 26.8629 14.6202 26.9218 14.7524C26.9808 14.8846 27.0118 15.0267 27.0131 15.1706C27.0144 15.3144 26.986 15.4571 26.9294 15.5902C26.8728 15.7233 26.7893 15.8443 26.6837 15.946C26.5781 16.0477 26.4524 16.1282 26.3142 16.1826C26.1759 16.2371 26.0278 16.2645 25.8784 16.2633C25.729 16.262 25.5814 16.2321 25.4442 16.1754C25.3069 16.1186 25.1828 16.036 25.079 15.9326L24.1306 15.0193ZM22.5399 13.4875L12.9931 4.29433L11.2415 5.98216L16.5492 11.1583C16.6644 11.2569 16.7574 11.3771 16.8223 11.5117C16.8873 11.6462 16.9229 11.7922 16.9268 11.9405C16.9308 12.0888 16.903 12.2363 16.8454 12.3739C16.7877 12.5115 16.7012 12.6362 16.5915 12.7403C16.4817 12.8444 16.3508 12.9257 16.2071 12.9791C16.0633 13.0325 15.9097 13.0569 15.7558 13.0507C15.6018 13.0446 15.4508 13.0081 15.3121 12.9435C15.1734 12.8788 15.05 12.7875 14.9495 12.675L9.65186 7.51291L3.23936 13.6879C2.9259 13.9897 2.67725 14.348 2.50761 14.7424C2.33796 15.1367 2.25064 15.5594 2.25064 15.9862C2.25064 16.413 2.33796 16.8357 2.50761 17.2301C2.67725 17.6244 2.9259 17.9827 3.23936 18.2845L8.01161 22.8811C8.64529 23.4894 9.50355 23.8309 10.3983 23.8309C11.293 23.8309 12.1513 23.4894 12.785 22.8811L22.5399 13.4875Z" fill="#372E24"/>
</g>
<defs>
<clipPath id="clip0_158_1419">
<rect width="27" height="26" fill="white"/>
</clipPath>
</defs>
</svg>
