<svg width="22" height="13" viewBox="0 0 22 13" fill="none" xmlns="http://www.w3.org/2000/svg">
<path d="M2.15091 0.25H19.8526C20.1657 0.251313 20.4714 0.34545 20.7311 0.520508C20.9907 0.695565 21.1926 0.943683 21.3113 1.23348C21.4299 1.52329 21.4599 1.84176 21.3976 2.14863C21.3352 2.4555 21.1833 2.73699 20.9609 2.9575L12.1259 11.7925C11.9787 11.9409 11.8036 12.0587 11.6107 12.1391C11.4177 12.2195 11.2108 12.2608 11.0017 12.2608C10.7927 12.2608 10.5858 12.2195 10.3928 12.1391C10.1999 12.0587 10.0248 11.9409 9.87758 11.7925L1.04258 2.9575C0.820247 2.73699 0.668293 2.4555 0.605933 2.14863C0.543573 1.84176 0.573607 1.52329 0.69224 1.23348C0.810872 0.943683 1.01277 0.695565 1.27241 0.520508C1.53205 0.34545 1.83777 0.251313 2.15091 0.25Z" fill="#372E24"/>
</svg>
