<svg width="27" height="26" viewBox="0 0 27 26" fill="none" xmlns="http://www.w3.org/2000/svg">
<g clip-path="url(#clip0_158_2236)">
<path d="M7.31096 2.07672C8.57777 2.0957 9.81694 2.43623 10.9034 3.06393C11.9898 3.69163 12.8849 4.58428 13.4985 5.65172C14.112 4.58428 15.0072 3.69163 16.0936 3.06393C17.18 2.43623 18.4192 2.0957 19.686 2.07672C21.7054 2.16121 23.608 3.01191 24.9782 4.44297C26.3484 5.87403 27.0747 7.76912 26.9985 9.71422C26.9985 14.6401 21.6142 20.02 17.0985 23.6676C16.0902 24.4834 14.8154 24.9307 13.4985 24.9307C12.1815 24.9307 10.9067 24.4834 9.89846 23.6676C5.38271 20.02 -0.00153971 14.6401 -0.00153971 9.71422C-0.0777591 7.76912 0.648551 5.87403 2.01872 4.44297C3.38888 3.01191 5.29152 2.16121 7.31096 2.07672Z" fill="#372E24"/>
</g>
<defs>
<clipPath id="clip0_158_2236">
<rect width="27" height="26" fill="white" transform="matrix(-1 0 0 1 27 0)"/>
</clipPath>
</defs>
</svg>
