<svg width="27" height="26" viewBox="0 0 27 26" fill="none" xmlns="http://www.w3.org/2000/svg">
<g clip-path="url(#clip0_158_1331)">
<path d="M7.31096 2.07675C8.57777 2.09573 9.81694 2.43626 10.9034 3.06396C11.9898 3.69166 12.8849 4.58431 13.4985 5.65175C14.112 4.58431 15.0072 3.69166 16.0936 3.06396C17.18 2.43626 18.4192 2.09573 19.686 2.07675C21.7054 2.16124 23.608 3.01194 24.9782 4.443C26.3484 5.87406 27.0747 7.76915 26.9985 9.71425C26.9985 14.6402 21.6142 20.02 17.0985 23.6676C16.0902 24.4835 14.8154 24.9308 13.4985 24.9308C12.1815 24.9308 10.9067 24.4835 9.89846 23.6676C5.38271 20.02 -0.00153971 14.6402 -0.00153971 9.71425C-0.0777591 7.76915 0.648551 5.87406 2.01872 4.443C3.38888 3.01194 5.29152 2.16124 7.31096 2.07675Z" fill="#372E24"/>
</g>
<defs>
<clipPath id="clip0_158_1331">
<rect width="27" height="26" fill="white" transform="matrix(-1 0 0 1 27 0)"/>
</clipPath>
</defs>
</svg>
