<svg width="178" height="37" viewBox="0 0 178 37" fill="none" xmlns="http://www.w3.org/2000/svg">
<path d="M47.92 36.16C47.2533 36.16 46.5333 35.9867 45.76 35.64C45.0133 35.32 44.3867 34.8267 43.88 34.16C43.4 33.52 43.1867 32.7333 43.24 31.8C43.2667 31.24 43.32 30.68 43.4 30.12C43.5067 29.5867 43.72 28.9333 44.04 28.16C44.3867 27.3867 44.92 26.3867 45.64 25.16C46.3867 23.9067 47.4133 22.32 48.72 20.4C50.0533 18.48 51.7467 16.08 53.8 13.2C54.7867 11.84 55.48 10.72 55.88 9.84C56.28 8.96 56.48 8.26667 56.48 7.76C56.48 7.33333 56.36 7.02667 56.12 6.84C55.88 6.65333 55.5733 6.56 55.2 6.56C54.6667 6.56 54.0267 6.72 53.28 7.04C52.56 7.36 51.8667 7.77333 51.2 8.28C49.9467 9.21333 48.6667 10.28 47.36 11.48C46.0533 12.6533 44.7867 13.8667 43.56 15.12C42.3333 16.3733 41.1867 17.5867 40.12 18.76C39.24 20.1733 38.4133 21.4667 37.64 22.64C36.8667 23.7867 36.3067 24.6133 35.96 25.12C35.8533 25.3067 35.68 25.44 35.44 25.52C35.2267 25.6 35.0133 25.64 34.8 25.64C34.4267 25.64 34.0933 25.5467 33.8 25.36C33.5067 25.1467 33.44 24.8933 33.6 24.6C33.6 24.6 33.76 24.32 34.08 23.76C34.4 23.2 34.8133 22.4533 35.32 21.52C35.8533 20.5867 36.4133 19.56 37 18.44C37.6133 17.32 38.2 16.2133 38.76 15.12C39.32 14 39.8 12.9733 40.2 12.04C40.6267 11.1067 40.9067 10.3733 41.04 9.84C41.2 9.14667 41.28 8.50667 41.28 7.92C41.28 7.33333 41.1733 6.86667 40.96 6.52C40.7467 6.14667 40.3733 5.96 39.84 5.96C39.4933 5.96 39.0533 6.06667 38.52 6.28C37.9867 6.49333 37.36 6.82666 36.64 7.28C35.4133 8.08 34.0267 9.13333 32.48 10.44C30.96 11.72 29.3733 13.16 27.72 14.76C26.0933 16.3333 24.4667 17.96 22.84 19.64C21.24 21.2933 19.7467 22.9067 18.36 24.48C18.28 24.56 18.1867 24.6 18.08 24.6C17.0667 25.9067 16.3067 26.76 15.8 27.16C15.32 27.56 15.08 27.64 15.08 27.4C15.08 26.8667 15.8133 25.68 17.28 23.84C18.4267 22.4267 19.6533 20.9333 20.96 19.36C22.2933 17.76 23.5333 16.1733 24.68 14.6C25.8533 13.0267 26.7867 11.56 27.48 10.2C28.1733 8.84 28.52 7.69333 28.52 6.76C28.52 5.50667 28 4.64 26.96 4.16C25.9467 3.68 24.6533 3.44 23.08 3.44C21.8267 3.44 20.48 3.56 19.04 3.8C17.6267 4.01333 16.2133 4.29333 14.8 4.64C13.4133 4.96 12.1333 5.30666 10.96 5.68C9.78667 6.02666 8.84 6.32 8.12 6.56C6.94667 6.96 5.86667 7.38667 4.88 7.84C3.89333 8.29333 3.10667 8.76 2.52 9.24C1.96 9.69333 1.68 10.16 1.68 10.64C1.68 11.0933 1.98667 11.5333 2.6 11.96C2.65333 11.9867 2.68 12.0267 2.68 12.08C2.68 12.1333 2.61333 12.16 2.48 12.16C2.34667 12.16 2.21333 12.12 2.08 12.04C1.30667 11.5067 0.92 10.7333 0.92 9.72C0.92 8.97333 1.17333 8.18667 1.68 7.36C2.18667 6.53333 2.97333 5.82667 4.04 5.24C5.4 4.46667 6.92 3.77333 8.6 3.16C10.28 2.52 12.0133 1.98667 13.8 1.56C15.5867 1.10666 17.3467 0.773332 19.08 0.559999C20.84 0.319999 22.4667 0.199999 23.96 0.199999C25.9333 0.199999 27.48 0.399999 28.6 0.799999C29.7467 1.2 30.56 1.74667 31.04 2.44C31.52 3.13333 31.76 3.90667 31.76 4.76C31.76 5.90667 31.4133 7.12 30.72 8.4C30.0533 9.68 29.3067 10.8267 28.48 11.84C27.7333 12.7467 26.7733 13.88 25.6 15.24C24.4533 16.6 23.32 17.9733 22.2 19.36C23.8267 17.6533 25.48 15.9867 27.16 14.36C28.84 12.7333 30.4667 11.2533 32.04 9.92C33.6133 8.58667 35.0267 7.50667 36.28 6.68C37.64 5.8 38.8267 5.17333 39.84 4.8C40.88 4.4 41.76 4.2 42.48 4.2C43.4933 4.2 44.2133 4.50666 44.64 5.12C45.0933 5.73333 45.32 6.49333 45.32 7.4C45.32 8.36 45.0933 9.4 44.64 10.52C44.3467 11.24 43.96 12.0667 43.48 13C43 13.9067 42.4667 14.8533 41.88 15.84C43.2667 14.4 44.7333 12.96 46.28 11.52C47.8533 10.08 49.3733 8.81333 50.84 7.72C52.12 6.78667 53.4667 6.01333 54.88 5.4C56.2933 4.78667 57.4933 4.48 58.48 4.48C59.0667 4.48 59.5333 4.61333 59.88 4.88C60.2267 5.12 60.4 5.52 60.4 6.08C60.4 6.56 60.24 7.17333 59.92 7.92C59.6 8.66667 59.0933 9.56 58.4 10.6C55.68 14.6267 53.4667 18.0933 51.76 21C50.08 23.88 48.84 26.28 48.04 28.2C47.24 30.12 46.7867 31.6533 46.68 32.8C46.6533 32.9333 46.64 33.0667 46.64 33.2C46.64 33.3333 46.64 33.4667 46.64 33.6C46.64 34.3467 46.76 34.8667 47 35.16C47.2667 35.48 47.56 35.64 47.88 35.64C48.28 35.64 48.6533 35.4933 49 35.2C49.1067 35.1467 49.1733 35.12 49.2 35.12C49.3333 35.12 49.44 35.1867 49.52 35.32C49.6 35.4533 49.5733 35.5867 49.44 35.72C49.0667 36.0133 48.56 36.16 47.92 36.16ZM62.8888 14.76C62.5154 14.76 62.2354 14.64 62.0488 14.4C61.8621 14.16 61.7688 13.9067 61.7688 13.64C61.7688 13.1067 62.0221 12.5867 62.5288 12.08C63.0354 11.5467 63.5688 11.28 64.1288 11.28C64.5021 11.28 64.7821 11.4 64.9688 11.64C65.1554 11.88 65.2488 12.1333 65.2488 12.4C65.2488 12.96 64.9954 13.4933 64.4888 14C64.0088 14.5067 63.4754 14.76 62.8888 14.76ZM56.7688 27.04C55.6754 27.04 54.9288 26.8133 54.5288 26.36C54.1554 25.88 53.9688 25.3467 53.9688 24.76C53.9688 24.28 54.0488 23.8267 54.2088 23.4C54.3688 22.9467 54.5021 22.6267 54.6088 22.44C54.7688 22.1733 54.9821 21.8667 55.2488 21.52C55.5421 21.1733 55.8621 20.8 56.2088 20.4C55.6754 20.8533 55.1688 21.2933 54.6888 21.72C54.2354 22.1467 53.8621 22.4667 53.5687 22.68C53.4887 22.76 53.4087 22.8 53.3287 22.8C53.2221 22.8 53.1687 22.7333 53.1687 22.6C53.1687 22.3867 53.3154 22.1733 53.6087 21.96C54.3021 21.3733 54.9688 20.7333 55.6088 20.04C56.2754 19.3467 56.9021 18.7067 57.4888 18.12C58.0754 17.5067 58.5954 17.08 59.0488 16.84C59.5288 16.5733 59.9154 16.4 60.2088 16.32C60.5021 16.24 60.7421 16.2 60.9288 16.2C61.2221 16.2 61.4354 16.2533 61.5688 16.36C61.7021 16.44 61.7288 16.5333 61.6488 16.64C61.1954 17.0933 60.7421 17.68 60.2888 18.4C59.8621 19.0933 59.4621 19.8267 59.0888 20.6C58.7154 21.3733 58.4088 22.1067 58.1688 22.8C57.9554 23.4933 57.8488 24.08 57.8488 24.56C57.8488 25.2267 58.1154 25.56 58.6488 25.56C59.1554 25.56 59.8088 25.3333 60.6088 24.88C61.4354 24.4 62.2888 23.8 63.1688 23.08C64.0754 22.36 64.9154 21.6533 65.6888 20.96C65.7954 20.8533 65.8888 20.8 65.9688 20.8C66.1021 20.8 66.1688 20.8667 66.1688 21C66.1954 21.1333 66.1688 21.2267 66.0888 21.28C65.2088 22.1067 64.2088 22.9733 63.0888 23.88C61.9954 24.76 60.8888 25.5067 59.7688 26.12C58.6754 26.7333 57.6754 27.04 56.7688 27.04ZM67.2644 27.44C66.1977 27.44 65.2644 27.24 64.4644 26.84C63.6377 26.4133 63.0377 25.64 62.6644 24.52C62.6377 24.4133 62.6777 24.3467 62.7844 24.32C62.8644 24.2933 62.9177 24.3467 62.9444 24.48C63.211 25.0667 63.5577 25.48 63.9844 25.72C64.411 25.96 64.8777 26.08 65.3844 26.08C66.2377 26.08 66.9844 25.8267 67.6244 25.32C68.291 24.8133 68.8777 24.1733 69.3844 23.4C69.9177 22.6267 70.3844 21.84 70.7844 21.04C71.211 20.2133 71.611 19.5067 71.9844 18.92C72.571 17.9333 73.2644 17.04 74.0644 16.24C74.891 15.44 75.6377 14.9467 76.3044 14.76C76.1444 14.68 75.9444 14.64 75.7044 14.64C75.0377 14.64 74.3044 14.84 73.5044 15.24C72.7044 15.64 71.891 16.16 71.0644 16.8C70.2644 17.44 69.4777 18.12 68.7044 18.84C67.9577 19.5333 67.2644 20.1867 66.6244 20.8C66.011 21.3867 65.5177 21.8533 65.1444 22.2C64.931 22.3867 64.771 22.48 64.6644 22.48C64.5577 22.48 64.5044 22.4267 64.5044 22.32C64.5044 22.16 64.571 22.0133 64.7044 21.88C65.5044 21.1867 66.331 20.4133 67.1844 19.56C68.0377 18.68 68.9044 17.84 69.7844 17.04C70.6644 16.2133 71.5577 15.5333 72.4644 15C73.371 14.4667 74.291 14.2 75.2244 14.2C75.331 14.2 75.4244 14.2 75.5044 14.2C75.611 14.2 75.7177 14.2133 75.8244 14.24C76.1177 14.2667 76.3844 14.3467 76.6244 14.48C76.891 14.6133 76.971 14.7067 76.8644 14.76C76.251 15.0267 75.771 15.56 75.4244 16.36C75.0777 17.16 74.7577 18.0933 74.4644 19.16C74.171 20.2267 73.811 21.3067 73.3844 22.4C72.9844 23.4933 72.3977 24.4667 71.6244 25.32C71.9977 25.1867 72.5844 24.88 73.3844 24.4C74.1844 23.92 75.0644 23.3333 76.0244 22.64C76.9844 21.92 77.8777 21.1333 78.7044 20.28C78.811 20.1733 78.9177 20.12 79.0244 20.12C79.1577 20.12 79.2244 20.1867 79.2244 20.32C79.2244 20.4267 79.171 20.5333 79.0644 20.64C78.3444 21.3333 77.5444 22.08 76.6644 22.88C75.7844 23.6533 74.8244 24.3867 73.7844 25.08C72.771 25.7733 71.7177 26.3467 70.6244 26.8C69.531 27.2267 68.411 27.44 67.2644 27.44ZM79.53 27.44C78.4633 27.44 77.53 27.24 76.73 26.84C75.9033 26.4133 75.3033 25.64 74.93 24.52C74.9033 24.4133 74.9433 24.3467 75.05 24.32C75.13 24.2933 75.1833 24.3467 75.21 24.48C75.4767 25.0667 75.8233 25.48 76.25 25.72C76.6767 25.96 77.1433 26.08 77.65 26.08C78.5033 26.08 79.25 25.8267 79.89 25.32C80.5567 24.8133 81.1433 24.1733 81.65 23.4C82.1833 22.6267 82.65 21.84 83.05 21.04C83.4767 20.2133 83.8767 19.5067 84.25 18.92C84.8367 17.9333 85.53 17.04 86.33 16.24C87.1567 15.44 87.9033 14.9467 88.57 14.76C88.41 14.68 88.21 14.64 87.97 14.64C87.3033 14.64 86.57 14.84 85.77 15.24C84.97 15.64 84.1567 16.16 83.33 16.8C82.53 17.44 81.7433 18.12 80.97 18.84C80.2233 19.5333 79.53 20.1867 78.89 20.8C78.2767 21.3867 77.7833 21.8533 77.41 22.2C77.1967 22.3867 77.0367 22.48 76.93 22.48C76.8233 22.48 76.77 22.4267 76.77 22.32C76.77 22.16 76.8367 22.0133 76.97 21.88C77.77 21.1867 78.5967 20.4133 79.45 19.56C80.3033 18.68 81.17 17.84 82.05 17.04C82.93 16.2133 83.8233 15.5333 84.73 15C85.6367 14.4667 86.5567 14.2 87.49 14.2C87.5967 14.2 87.69 14.2 87.77 14.2C87.8767 14.2 87.9833 14.2133 88.09 14.24C88.3833 14.2667 88.65 14.3467 88.89 14.48C89.1567 14.6133 89.2367 14.7067 89.13 14.76C88.5167 15.0267 88.0367 15.56 87.69 16.36C87.3433 17.16 87.0233 18.0933 86.73 19.16C86.4367 20.2267 86.0767 21.3067 85.65 22.4C85.25 23.4933 84.6633 24.4667 83.89 25.32C84.2633 25.1867 84.85 24.88 85.65 24.4C86.45 23.92 87.33 23.3333 88.29 22.64C89.25 21.92 90.1433 21.1333 90.97 20.28C91.0767 20.1733 91.1833 20.12 91.29 20.12C91.4233 20.12 91.49 20.1867 91.49 20.32C91.49 20.4267 91.4367 20.5333 91.33 20.64C90.61 21.3333 89.81 22.08 88.93 22.88C88.05 23.6533 87.09 24.3867 86.05 25.08C85.0367 25.7733 83.9833 26.3467 82.89 26.8C81.7967 27.2267 80.6767 27.44 79.53 27.44ZM99.5156 29.08C97.1423 29.08 95.0356 28.7867 93.1956 28.2C91.3556 27.64 90.1156 26.7333 89.4756 25.48C89.3423 25.2133 89.2756 25.04 89.2756 24.96C89.2756 24.9067 89.3023 24.88 89.3556 24.88C89.4623 24.88 89.649 24.9733 89.9156 25.16C90.929 25.8533 92.2223 26.3067 93.7956 26.52C95.369 26.7333 96.9423 26.84 98.5156 26.84C100.036 26.84 101.676 26.7067 103.436 26.44C105.222 26.1733 107.009 25.7867 108.796 25.28C110.609 24.7467 112.369 24.08 114.076 23.28C115.782 22.48 117.342 21.5467 118.756 20.48C120.969 18.8 122.582 17.1733 123.596 15.6C124.609 14.0267 125.116 12.5467 125.116 11.16C125.116 9.64 124.556 8.29333 123.436 7.12C122.316 5.94667 120.756 5.04 118.756 4.4C116.782 3.73333 114.462 3.4 111.796 3.4C110.836 3.4 109.849 3.44 108.836 3.52C107.129 3.68 105.422 3.97333 103.716 4.4C102.036 4.8 100.422 5.30667 98.8756 5.92C97.3556 6.53333 95.9956 7.2 94.7956 7.92C93.5956 8.64 92.649 9.38667 91.9556 10.16C91.289 10.9067 90.9556 11.64 90.9556 12.36C90.9556 12.8133 91.1156 13.2667 91.4356 13.72C91.5156 13.8 91.5556 13.9067 91.5556 14.04C91.5556 14.1467 91.5156 14.2267 91.4356 14.28C91.3556 14.3067 91.249 14.2667 91.1156 14.16C90.8756 13.8933 90.649 13.48 90.4356 12.92C90.2223 12.3333 90.1156 11.68 90.1156 10.96C90.1156 10.24 90.2756 9.49333 90.5956 8.72C90.9423 7.92 91.5423 7.18667 92.3956 6.52C93.409 5.72 94.6623 4.97333 96.1556 4.28C97.649 3.56 99.2756 2.93333 101.036 2.4C102.822 1.86667 104.649 1.45333 106.516 1.16C108.409 0.866666 110.276 0.72 112.116 0.72C115.289 0.72 117.889 1.2 119.916 2.16C121.969 3.09333 123.489 4.34667 124.476 5.92C125.462 7.46667 125.956 9.17333 125.956 11.04C125.956 12.7467 125.542 14.4933 124.716 16.28C123.916 18.0667 122.729 19.76 121.156 21.36C119.609 22.96 117.689 24.3467 115.396 25.52C113.929 26.24 112.302 26.8667 110.516 27.4C108.729 27.9333 106.889 28.3467 104.996 28.64C103.102 28.9333 101.276 29.08 99.5156 29.08ZM95.4756 23.68C95.289 23.68 95.1956 23.4933 95.1956 23.12C95.1956 22.7467 95.3956 22.1333 95.7956 21.28C96.2223 20.4267 96.7823 19.44 97.4756 18.32C98.169 17.2 98.929 16.0267 99.7556 14.8C100.609 13.5467 101.462 12.3333 102.316 11.16C103.169 9.96 103.969 8.88 104.716 7.92C105.462 6.93333 106.089 6.16 106.596 5.6C107.129 5.01333 107.462 4.72 107.596 4.72H107.956C108.249 4.72 108.396 4.78666 108.396 4.92C108.396 5.05333 108.289 5.22666 108.076 5.44C107.169 6.42667 106.209 7.54667 105.196 8.8C104.209 10.0533 103.222 11.3733 102.236 12.76C101.249 14.12 100.316 15.4667 99.4356 16.8C98.5823 18.1333 97.8356 19.3733 97.1956 20.52C96.5556 21.6667 96.089 22.6267 95.7956 23.4C95.7156 23.5867 95.609 23.68 95.4756 23.68ZM129.227 27.04C128.08 27.04 127.307 26.8267 126.907 26.4C126.507 25.9467 126.307 25.4533 126.307 24.92C126.307 24.2267 126.573 23.4933 127.107 22.72C127.427 22.2667 127.787 21.76 128.187 21.2C128.587 20.6133 128.96 20.0667 129.307 19.56C129.653 19.0533 129.893 18.6933 130.027 18.48C130.213 18.2133 130.32 18.04 130.347 17.96C130.4 17.8533 130.427 17.7467 130.427 17.64C130.427 17.48 130.32 17.3333 130.107 17.2C129.92 17.04 129.6 16.96 129.147 16.96C129.013 16.96 128.893 16.9733 128.787 17C128.707 17 128.613 17 128.507 17C128.293 17 128.173 16.9867 128.147 16.96L128.027 17.12C127.28 18.1067 126.48 19.08 125.627 20.04C124.773 20.9733 123.84 21.84 122.827 22.64C122.72 22.72 122.64 22.76 122.587 22.76C122.48 22.76 122.427 22.7067 122.427 22.6C122.427 22.3867 122.587 22.1467 122.907 21.88C123.733 21.1867 124.547 20.4133 125.347 19.56C126.147 18.68 126.867 17.76 127.507 16.8C127.267 16.64 127.147 16.32 127.147 15.84C127.147 15.12 127.373 14.3467 127.827 13.52C128.147 12.96 128.493 12.5467 128.867 12.28C129.267 11.9867 129.613 11.84 129.907 11.84C130.467 11.84 130.747 12.1733 130.747 12.84C130.747 13.2667 130.587 13.8 130.267 14.44C130.133 14.76 129.867 15.1733 129.467 15.68C129.093 16.16 128.72 16.5067 128.347 16.72C128.907 16.5333 129.613 16.4133 130.467 16.36C131.347 16.28 132.08 16.24 132.667 16.24C133.013 16.24 133.44 16.3467 133.947 16.56C134.453 16.7467 134.707 17.0933 134.707 17.6C134.707 17.9467 134.547 18.32 134.227 18.72C134.147 18.8267 133.933 19.08 133.587 19.48C133.24 19.88 132.853 20.36 132.427 20.92C132.027 21.48 131.653 22.04 131.307 22.6C130.96 23.1067 130.68 23.5733 130.467 24C130.28 24.4267 130.187 24.7867 130.187 25.08C130.187 25.5067 130.427 25.72 130.907 25.72C131.467 25.72 132.213 25.4533 133.147 24.92C134.08 24.3867 135.08 23.7067 136.147 22.88C137.24 22.0267 138.24 21.1467 139.147 20.24C139.253 20.1333 139.347 20.08 139.427 20.08C139.533 20.08 139.587 20.1467 139.587 20.28C139.587 20.44 139.52 20.5867 139.387 20.72C138.453 21.6533 137.413 22.6133 136.267 23.6C135.147 24.56 133.973 25.3733 132.747 26.04C131.547 26.7067 130.373 27.04 129.227 27.04ZM141.56 27.4C140.386 27.4 139.4 27.12 138.6 26.56C137.826 25.9733 137.44 25.1333 137.44 24.04C137.44 22.8667 137.72 21.7733 138.28 20.76C138.84 19.7467 139.586 18.8667 140.52 18.12C141.453 17.3467 142.466 16.7467 143.56 16.32C144.68 15.8933 145.786 15.68 146.88 15.68C147.973 15.68 148.786 15.88 149.32 16.28C149.853 16.6533 150.12 17.12 150.12 17.68C150.12 18.2133 149.866 18.7867 149.36 19.4C148.88 19.9867 148.173 20.5067 147.24 20.96C146.653 21.2267 145.973 21.4667 145.2 21.68C144.453 21.8667 143.8 21.96 143.24 21.96C142.813 21.96 142.6 21.8933 142.6 21.76C142.6 21.6533 142.786 21.6 143.16 21.6C143.506 21.6 144.04 21.5067 144.76 21.32C145.506 21.1067 146.226 20.8267 146.92 20.48C147.693 20.0533 148.24 19.6267 148.56 19.2C148.88 18.7733 149.04 18.3867 149.04 18.04C149.04 17.72 148.906 17.4533 148.64 17.24C148.4 17.0267 148.053 16.92 147.6 16.92C147.173 16.92 146.693 17.04 146.16 17.28C145.386 17.6267 144.586 18.2 143.76 19C142.96 19.7733 142.293 20.6267 141.76 21.56C141.226 22.4933 140.96 23.3867 140.96 24.24C140.96 24.8267 141.12 25.32 141.44 25.72C141.786 26.12 142.293 26.32 142.96 26.32C143.653 26.32 144.453 26.1067 145.36 25.68C146.266 25.2267 147.186 24.68 148.12 24.04C149.053 23.3733 149.92 22.7067 150.72 22.04C151.52 21.3733 152.16 20.8133 152.64 20.36C152.8 20.2 152.92 20.12 153 20.12C153.08 20.12 153.12 20.1867 153.12 20.32C153.12 20.5067 153.04 20.6667 152.88 20.8C151.866 21.7333 150.76 22.7067 149.56 23.72C148.386 24.7333 147.12 25.6 145.76 26.32C144.426 27.0133 143.026 27.3733 141.56 27.4ZM153.553 27.44C152.487 27.44 151.553 27.24 150.753 26.84C149.927 26.4133 149.327 25.64 148.953 24.52C148.927 24.4133 148.967 24.3467 149.073 24.32C149.153 24.2933 149.207 24.3467 149.233 24.48C149.5 25.0667 149.847 25.48 150.273 25.72C150.7 25.96 151.167 26.08 151.673 26.08C152.527 26.08 153.273 25.8267 153.913 25.32C154.58 24.8133 155.167 24.1733 155.673 23.4C156.207 22.6267 156.673 21.84 157.073 21.04C157.5 20.2133 157.9 19.5067 158.273 18.92C158.86 17.9333 159.553 17.04 160.353 16.24C161.18 15.44 161.927 14.9467 162.593 14.76C162.433 14.68 162.233 14.64 161.993 14.64C161.327 14.64 160.593 14.84 159.793 15.24C158.993 15.64 158.18 16.16 157.353 16.8C156.553 17.44 155.767 18.12 154.993 18.84C154.247 19.5333 153.553 20.1867 152.913 20.8C152.3 21.3867 151.807 21.8533 151.433 22.2C151.22 22.3867 151.06 22.48 150.953 22.48C150.847 22.48 150.793 22.4267 150.793 22.32C150.793 22.16 150.86 22.0133 150.993 21.88C151.793 21.1867 152.62 20.4133 153.473 19.56C154.327 18.68 155.193 17.84 156.073 17.04C156.953 16.2133 157.847 15.5333 158.753 15C159.66 14.4667 160.58 14.2 161.513 14.2C161.62 14.2 161.713 14.2 161.793 14.2C161.9 14.2 162.007 14.2133 162.113 14.24C162.407 14.2667 162.673 14.3467 162.913 14.48C163.18 14.6133 163.26 14.7067 163.153 14.76C162.54 15.0267 162.06 15.56 161.713 16.36C161.367 17.16 161.047 18.0933 160.753 19.16C160.46 20.2267 160.1 21.3067 159.673 22.4C159.273 23.4933 158.687 24.4667 157.913 25.32C158.287 25.1867 158.873 24.88 159.673 24.4C160.473 23.92 161.353 23.3333 162.313 22.64C163.273 21.92 164.167 21.1333 164.993 20.28C165.1 20.1733 165.207 20.12 165.313 20.12C165.447 20.12 165.513 20.1867 165.513 20.32C165.513 20.4267 165.46 20.5333 165.353 20.64C164.633 21.3333 163.833 22.08 162.953 22.88C162.073 23.6533 161.113 24.3867 160.073 25.08C159.06 25.7733 158.007 26.3467 156.913 26.8C155.82 27.2267 154.7 27.44 153.553 27.44ZM165.819 27.44C164.752 27.44 163.819 27.24 163.019 26.84C162.192 26.4133 161.592 25.64 161.219 24.52C161.192 24.4133 161.232 24.3467 161.339 24.32C161.419 24.2933 161.472 24.3467 161.499 24.48C161.766 25.0667 162.112 25.48 162.539 25.72C162.966 25.96 163.432 26.08 163.939 26.08C164.792 26.08 165.539 25.8267 166.179 25.32C166.846 24.8133 167.432 24.1733 167.939 23.4C168.472 22.6267 168.939 21.84 169.339 21.04C169.766 20.2133 170.166 19.5067 170.539 18.92C171.126 17.9333 171.819 17.04 172.619 16.24C173.446 15.44 174.192 14.9467 174.859 14.76C174.699 14.68 174.499 14.64 174.259 14.64C173.592 14.64 172.859 14.84 172.059 15.24C171.259 15.64 170.446 16.16 169.619 16.8C168.819 17.44 168.032 18.12 167.259 18.84C166.512 19.5333 165.819 20.1867 165.179 20.8C164.566 21.3867 164.072 21.8533 163.699 22.2C163.486 22.3867 163.326 22.48 163.219 22.48C163.112 22.48 163.059 22.4267 163.059 22.32C163.059 22.16 163.126 22.0133 163.259 21.88C164.059 21.1867 164.886 20.4133 165.739 19.56C166.592 18.68 167.459 17.84 168.339 17.04C169.219 16.2133 170.112 15.5333 171.019 15C171.926 14.4667 172.846 14.2 173.779 14.2C173.886 14.2 173.979 14.2 174.059 14.2C174.166 14.2 174.272 14.2133 174.379 14.24C174.672 14.2667 174.939 14.3467 175.179 14.48C175.446 14.6133 175.526 14.7067 175.419 14.76C174.806 15.0267 174.326 15.56 173.979 16.36C173.632 17.16 173.312 18.0933 173.019 19.16C172.726 20.2267 172.366 21.3067 171.939 22.4C171.539 23.4933 170.952 24.4667 170.179 25.32C170.552 25.1867 171.139 24.88 171.939 24.4C172.739 23.92 173.619 23.3333 174.579 22.64C175.539 21.92 176.432 21.1333 177.259 20.28C177.366 20.1733 177.472 20.12 177.579 20.12C177.712 20.12 177.779 20.1867 177.779 20.32C177.779 20.4267 177.726 20.5333 177.619 20.64C176.899 21.3333 176.099 22.08 175.219 22.88C174.339 23.6533 173.379 24.3867 172.339 25.08C171.326 25.7733 170.272 26.3467 169.179 26.8C168.086 27.2267 166.966 27.44 165.819 27.44Z" fill="#372E24"/>
</svg>
