<svg width="25" height="25" viewBox="0 0 25 25" fill="none" xmlns="http://www.w3.org/2000/svg">
<g clip-path="url(#clip0_50_685)">
<path d="M23.4375 14.0625H14.0625V23.4375C14.0625 24.3004 13.3629 25 12.5 25C11.6371 25 10.9375 24.3004 10.9375 23.4375V14.0625H1.5625C0.699561 14.0625 0 13.3629 0 12.5C0 11.6371 0.699561 10.9375 1.5625 10.9375H10.9375V1.5625C10.9375 0.69956 11.6371 0 12.5 0C13.3629 0 14.0625 0.69956 14.0625 1.5625V10.9375H23.4375C24.3004 10.9375 25 11.6371 25 12.5C25 13.3629 24.3004 14.0625 23.4375 14.0625Z" fill="#372E24"/>
</g>
<defs>
<clipPath id="clip0_50_685">
<rect width="25" height="25" fill="white" transform="matrix(1 0 0 -1 0 25)"/>
</clipPath>
</defs>
</svg>
