<svg width="27" height="26" viewBox="0 0 27 26" fill="none" xmlns="http://www.w3.org/2000/svg">
<path d="M1.48402 13.6652L5.49122 16.575L3.96939 21.261C3.72345 21.9878 3.72034 22.7742 3.9605 23.5029C4.20067 24.2315 4.67126 24.8635 5.30212 25.3046C5.92217 25.7599 6.67356 26.0038 7.44434 26C8.21512 25.9961 8.96403 25.7448 9.57947 25.2834L13.4977 22.416L17.4172 25.28C18.0361 25.7327 18.7834 25.9785 19.5517 25.9823C20.3201 25.986 21.0698 25.7474 21.6931 25.3007C22.3164 24.8541 22.7813 24.2224 23.0208 23.4966C23.2603 22.7707 23.2622 21.988 23.0261 21.261L21.5043 16.575L25.5115 13.6652C26.1296 13.2158 26.5891 12.5838 26.8243 11.8593C27.0596 11.1348 27.0585 10.3549 26.8213 9.63098C26.5841 8.9071 26.123 8.27626 25.5036 7.82856C24.8843 7.38087 24.1385 7.13922 23.3728 7.13813H18.4505L16.9568 2.50921C16.7219 1.78058 16.2603 1.14495 15.6386 0.693978C15.017 0.243007 14.2673 0 13.4977 0C12.7282 0 11.9785 0.243007 11.3569 0.693978C10.7352 1.14495 10.2736 1.78058 10.0387 2.50921L8.54503 7.13813H3.6272C2.86149 7.13922 2.11571 7.38087 1.49638 7.82856C0.87705 8.27626 0.415854 8.9071 0.178664 9.63098C-0.0585255 10.3549 -0.0595754 11.1348 0.175665 11.8593C0.410905 12.5838 0.870401 13.2158 1.48852 13.6652H1.48402Z" fill="#372E24"/>
</svg>
