<svg width="75" height="75" viewBox="0 0 75 75" fill="none" xmlns="http://www.w3.org/2000/svg">
<g clip-path="url(#clip0_158_1945)">
<path fill-rule="evenodd" clip-rule="evenodd" d="M37.5 0C16.7906 0 0 16.7906 0 37.5C0 58.2094 16.7906 75 37.5 75C58.2094 75 75 58.2094 75 37.5C75 16.7906 58.2094 0 37.5 0ZM54.8813 25.5031C54.3188 31.4313 51.875 45.8219 50.6344 52.4625C50.1094 55.275 49.0719 56.2156 48.0719 56.3062C45.8937 56.5062 44.2406 54.8656 42.1313 53.4844C38.8312 51.3219 36.9656 49.975 33.7625 47.8625C30.0594 45.4219 32.4594 44.0812 34.5688 41.8906C35.1219 41.3156 44.7156 32.5875 44.9031 31.7969C44.925 31.6969 44.95 31.3281 44.7281 31.1344C44.5062 30.9406 44.1844 31.0063 43.9531 31.0594C43.6219 31.1344 38.35 34.6188 28.1344 41.5125C26.6375 42.5406 25.2812 43.0406 24.0656 43.0156C22.7281 42.9875 20.1531 42.2594 18.2375 41.6344C15.8906 40.8719 14.0219 40.4656 14.1844 39.1719C14.2688 38.4969 15.1969 37.8062 16.9719 37.1C27.9031 32.3375 35.1937 29.1969 38.8406 27.6781C49.2562 23.3469 51.4188 22.5938 52.8312 22.5688C54.6 22.5438 55.025 24.0031 54.8813 25.5031Z" fill="#4E7C90"/>
</g>
<defs>
<clipPath id="clip0_158_1945">
<rect width="75" height="75" fill="white"/>
</clipPath>
</defs>
</svg>
