<svg width="79" height="75" viewBox="0 0 79 75" fill="none" xmlns="http://www.w3.org/2000/svg">
<g clip-path="url(#clip0_158_1941)">
<path fill-rule="evenodd" clip-rule="evenodd" d="M67.3573 10.9C59.9642 3.875 50.1353 0.003125 39.6645 0C18.0876 0 0.526542 16.6688 0.516667 37.1625C0.513375 43.7125 2.31721 50.1062 5.74383 55.7437L0.1875 75L20.9382 69.8313C26.6558 72.7938 33.0943 74.3531 39.6447 74.3563H39.6612C61.2347 74.3563 78.7991 57.6844 78.809 37.1906C78.8155 27.2625 74.747 17.9219 67.3573 10.9ZM39.6645 68.0781H39.6513C33.8119 68.0781 28.0877 66.5875 23.0909 63.7719L21.9026 63.1031L9.5885 66.1687L12.8769 54.7687L12.1033 53.6C8.84458 48.6813 7.12633 42.9969 7.12962 37.1625C7.13621 20.1313 21.7348 6.275 39.6809 6.275C48.3709 6.275 56.5408 9.49375 62.6831 15.3313C68.8253 21.1719 72.2059 28.9312 72.2026 37.1844C72.1927 54.2219 57.5975 68.0781 39.6645 68.0781ZM57.5119 44.9437C56.5343 44.4781 51.7251 42.2313 50.8265 41.9219C49.9312 41.6125 49.2794 41.4562 48.6244 42.3844C47.9693 43.3125 46.0997 45.4062 45.5269 46.0281C44.9575 46.6469 44.3847 46.725 43.4071 46.2594C42.4295 45.7938 39.276 44.8156 35.54 41.65C32.6335 39.1875 30.6683 36.1469 30.0989 35.2156C29.5294 34.2844 30.0396 33.7844 30.5268 33.3219C30.9679 32.9062 31.5044 32.2375 31.9949 31.6938C32.4886 31.1562 32.6499 30.7688 32.9791 30.1469C33.305 29.5281 33.1437 28.9844 32.8968 28.5188C32.6499 28.0563 30.6947 23.4844 29.8816 21.625C29.0883 19.8125 28.2819 20.0594 27.6795 20.0312C27.11 20.0031 26.4583 20 25.8033 20C25.1515 20 24.0916 20.2312 23.1962 21.1625C22.3009 22.0938 19.7729 24.3406 19.7729 28.9094C19.7729 33.4813 23.2785 37.8969 23.7657 38.5156C24.2529 39.1344 30.6617 48.5156 40.4742 52.5375C42.808 53.4938 44.6316 54.0656 46.0503 54.4937C48.394 55.2 50.527 55.1 52.2123 54.8625C54.0918 54.5969 57.999 52.6156 58.8154 50.4469C59.6317 48.2781 59.6317 46.4156 59.3848 46.0312C59.1413 45.6406 58.4895 45.4094 57.5119 44.9437Z" fill="#5F904E"/>
</g>
<defs>
<clipPath id="clip0_158_1941">
<rect width="79" height="75" fill="white"/>
</clipPath>
</defs>
</svg>
